<svg width="758" height="328" viewBox="0 0 758 328" fill="none" xmlns="http://www.w3.org/2000/svg">
<g filter="url(#filter0_dd_1_3)">
<mask id="path-1-outside-1_1_3" maskUnits="userSpaceOnUse" x="57" y="83" width="647" height="181" fill="black">
<rect fill="white" x="57" y="83" width="647" height="181"/>
<path d="M156.051 123.32C151.884 123.32 146.643 122.897 140.328 122.051L124.605 120C123.108 138.945 122.359 157.044 122.359 174.297C122.359 178.854 122.49 184.486 122.75 191.191C123.01 197.897 123.141 203.529 123.141 208.086C123.141 214.206 122.913 219.772 122.457 224.785L153.219 224.395C155.953 224.395 158.232 225.371 160.055 227.324C161.943 229.212 162.887 231.556 162.887 234.355C162.887 237.22 161.943 239.629 160.055 241.582C158.232 243.47 155.953 244.414 153.219 244.414C149.573 244.414 144.104 244.512 136.812 244.707C129.521 244.837 124.052 244.902 120.406 244.902C116.109 244.902 109.664 245.488 101.07 246.66C92.5417 247.897 86.0964 248.516 81.7344 248.516C79 248.516 76.6888 247.539 74.8008 245.586C72.9779 243.698 72.0664 241.354 72.0664 238.555C72.0664 235.755 72.9779 233.379 74.8008 231.426C76.6888 229.473 79 228.496 81.7344 228.496C85.9661 228.496 92.9648 227.812 102.73 226.445C103.382 221.172 103.707 215.15 103.707 208.379C103.707 203.887 103.479 198.418 103.023 191.973C102.633 185.462 102.438 179.993 102.438 175.566C102.438 160.527 103.349 141.745 105.172 119.219L92.4766 119.609L79.7812 119.902C76.9818 119.902 74.638 118.958 72.75 117.07C70.862 115.182 69.918 112.773 69.918 109.844C69.918 103.789 72.9779 100.469 79.0977 99.8828C84.3711 99.362 94.2344 99.1016 108.688 99.1016C121.643 99.1016 137.887 100.501 157.418 103.301C163.212 104.147 166.109 107.63 166.109 113.75C166.109 116.81 165.003 119.251 162.789 121.074C160.836 122.572 158.59 123.32 156.051 123.32ZM251.461 169.805C247.88 169.805 245.374 168.6 243.941 166.191C242.965 164.499 242.118 160.983 241.402 155.645C236.52 156.882 229 159.16 218.844 162.48C208.362 166.647 203.089 171.79 203.023 177.91C204.977 178.626 206.897 179.147 208.785 179.473C223.759 182.142 234.892 185.82 242.184 190.508C252.796 197.344 258.102 207.24 258.102 220.195C258.102 230.807 253.512 238.815 244.332 244.219C236.715 248.646 227.079 250.859 215.426 250.859C206.897 250.859 198.759 249.427 191.012 246.562C180.986 242.917 175.973 237.839 175.973 231.328C175.973 228.724 176.982 226.445 179 224.492C181.083 222.539 183.427 221.562 186.031 221.562C188.049 221.562 190.654 223.125 193.844 226.25C195.406 227.747 198.922 228.984 204.391 229.961C208.753 230.742 212.431 231.133 215.426 231.133C220.895 231.133 225.712 230.482 229.879 229.18C235.934 227.292 238.961 224.297 238.961 220.195C238.961 211.341 232.776 205.352 220.406 202.227L210.25 199.98C201.591 198.092 195.439 195.879 191.793 193.34C186.52 189.694 183.883 184.193 183.883 176.836C183.883 163.229 190.296 153.529 203.121 147.734C207.027 145.977 213.277 143.893 221.871 141.484C230.465 139.01 236.617 136.927 240.328 135.234C242.997 134.062 245.895 133.477 249.02 133.477C251.819 133.477 254.098 134.388 255.855 136.211C257.678 138.034 258.59 140.41 258.59 143.34C258.59 145.228 258.98 147.995 259.762 151.641C260.608 155.286 261.031 158.053 261.031 159.941C261.031 162.871 260.12 165.247 258.297 167.07C256.539 168.893 254.26 169.805 251.461 169.805ZM441.891 117.461L433.004 127.812C424.54 137.708 416.76 149.688 409.664 163.75L391.891 202.715C390.654 205.579 387.919 213.099 383.688 225.273C380.302 234.909 377.145 242.103 374.215 246.855C372.392 249.915 369.788 251.445 366.402 251.445C363.798 251.445 361.487 250.534 359.469 248.711C357.516 246.888 356.539 244.707 356.539 242.168C356.539 239.694 358.622 233.346 362.789 223.125L384.762 169.316C394.462 148.027 404.423 131.621 414.645 120.098L416.5 118.047L367.477 117.07L345.504 116.484C339.189 115.898 336.031 112.773 336.031 107.109C336.031 104.375 336.943 102.129 338.766 100.371C340.589 98.6133 342.867 97.7344 345.602 97.7344C353.805 97.7344 366.109 97.9948 382.516 98.5156C398.987 99.0365 411.324 99.2969 419.527 99.2969H437.398C444.299 99.2969 447.75 101.348 447.75 105.449C447.75 108.509 445.797 112.513 441.891 117.461ZM549.703 245.195C548.076 245.195 545.764 244.707 542.77 243.73C539.84 242.689 537.594 242.168 536.031 242.168C532.711 242.168 527.73 242.363 521.09 242.754C514.449 243.145 509.436 243.34 506.051 243.34C503.512 243.34 499.736 243.665 494.723 244.316C489.775 244.967 486.031 245.293 483.492 245.293C482.776 245.293 481.734 245.163 480.367 244.902C479 244.642 477.958 244.512 477.242 244.512C472.75 244.512 469.82 242.331 468.453 237.969C467.672 235.69 467.281 231.784 467.281 226.25C467.281 211.081 471.415 198.874 479.684 189.629C483.46 185.397 493.648 177.585 510.25 166.191C519.56 159.811 525.777 154.831 528.902 151.25C534.501 145 537.301 137.676 537.301 129.277C537.301 125.111 534.599 121.4 529.195 118.145C524.443 115.215 519.788 113.75 515.23 113.75C509.241 113.75 503.544 115.475 498.141 118.926L484.176 129.863C481.376 132.077 479.13 133.184 477.438 133.184C470.732 133.184 467.379 130.514 467.379 125.176C467.379 122.116 468.616 119.479 471.09 117.266C478.707 110.104 485.315 104.928 490.914 101.738C498.792 97.2461 506.897 95 515.23 95C525.777 95 535.185 97.8646 543.453 103.594C552.698 110.039 557.32 118.307 557.32 128.398C557.32 135.039 556.376 141.159 554.488 146.758C552.6 152.357 549.736 157.467 545.895 162.09C541.012 167.949 532.743 174.492 521.09 181.719C508.85 189.401 500.81 195.228 496.969 199.199C489.742 206.686 486.194 215.768 486.324 226.445L506.441 224.59C520.243 223.809 530.107 223.418 536.031 223.418C540.979 223.418 545.667 224.264 550.094 225.957C555.953 228.236 558.883 231.393 558.883 235.43C558.883 237.969 558.004 240.247 556.246 242.266C554.488 244.219 552.307 245.195 549.703 245.195ZM686.031 117.461L677.145 127.812C668.681 137.708 660.901 149.688 653.805 163.75L636.031 202.715C634.794 205.579 632.06 213.099 627.828 225.273C624.443 234.909 621.285 242.103 618.355 246.855C616.533 249.915 613.928 251.445 610.543 251.445C607.939 251.445 605.628 250.534 603.609 248.711C601.656 246.888 600.68 244.707 600.68 242.168C600.68 239.694 602.763 233.346 606.93 223.125L628.902 169.316C638.603 148.027 648.564 131.621 658.785 120.098L660.641 118.047L611.617 117.07L589.645 116.484C583.329 115.898 580.172 112.773 580.172 107.109C580.172 104.375 581.083 102.129 582.906 100.371C584.729 98.6133 587.008 97.7344 589.742 97.7344C597.945 97.7344 610.25 97.9948 626.656 98.5156C643.128 99.0365 655.465 99.2969 663.668 99.2969H681.539C688.44 99.2969 691.891 101.348 691.891 105.449C691.891 108.509 689.938 112.513 686.031 117.461Z"/>
</mask>
<path d="M140.328 122.051L141.922 110.157L141.901 110.154L141.88 110.152L140.328 122.051ZM124.605 120L126.158 108.101L113.638 106.468L112.643 119.054L124.605 120ZM122.457 224.785L110.506 223.699L109.301 236.953L122.609 236.784L122.457 224.785ZM153.219 224.395V212.395H153.143L153.066 212.395L153.219 224.395ZM160.055 227.324L151.282 235.512L151.423 235.663L151.569 235.81L160.055 227.324ZM160.055 241.582L151.427 233.242L151.422 233.247L160.055 241.582ZM136.812 244.707L137.027 256.705L137.08 256.704L137.134 256.703L136.812 244.707ZM101.07 246.66L99.449 234.77L99.3984 234.777L99.3479 234.784L101.07 246.66ZM74.8008 245.586L66.168 253.921L66.1729 253.926L74.8008 245.586ZM74.8008 231.426L66.1729 223.086L66.0999 223.161L66.0281 223.238L74.8008 231.426ZM102.73 226.445L104.394 238.329L113.512 237.053L114.64 227.916L102.73 226.445ZM103.023 191.973L91.045 192.691L91.0488 192.755L91.0533 192.819L103.023 191.973ZM105.172 119.219L117.133 120.187L118.215 106.812L104.803 107.224L105.172 119.219ZM92.4766 119.609L92.7534 131.606L92.7995 131.605L92.8456 131.604L92.4766 119.609ZM79.7812 119.902V131.902H79.9197L80.0581 131.899L79.7812 119.902ZM72.75 117.07L81.2353 108.585L72.75 117.07ZM79.0977 99.8828L80.2414 111.828L80.2592 111.826L80.2771 111.825L79.0977 99.8828ZM157.418 103.301L159.152 91.4268L159.136 91.4245L159.121 91.4222L157.418 103.301ZM162.789 121.074L170.09 130.597L170.256 130.47L170.418 130.337L162.789 121.074ZM156.051 111.32C152.618 111.32 147.954 110.965 141.922 110.157L138.734 133.944C145.333 134.829 151.151 135.32 156.051 135.32V111.32ZM141.88 110.152L126.158 108.101L123.053 131.899L138.776 133.95L141.88 110.152ZM112.643 119.054C111.123 138.283 110.359 156.699 110.359 174.297H134.359C134.359 157.39 135.093 139.607 136.568 120.946L112.643 119.054ZM110.359 174.297C110.359 179.063 110.495 184.861 110.759 191.657L134.741 190.726C134.484 184.11 134.359 178.645 134.359 174.297H110.359ZM110.759 191.657C111.016 198.273 111.141 203.738 111.141 208.086H135.141C135.141 203.32 135.005 197.522 134.741 190.726L110.759 191.657ZM111.141 208.086C111.141 213.917 110.923 219.114 110.506 223.699L134.408 225.872C134.902 220.43 135.141 214.494 135.141 208.086H111.141ZM122.609 236.784L153.371 236.394L153.066 212.395L122.305 212.786L122.609 236.784ZM153.219 236.395C153.129 236.395 152.753 236.372 152.251 236.157C151.744 235.939 151.418 235.657 151.282 235.512L168.827 219.136C164.675 214.688 159.191 212.395 153.219 212.395V236.395ZM151.569 235.81C151.437 235.677 151.213 235.392 151.048 234.981C150.887 234.582 150.887 234.326 150.887 234.355H174.887C174.887 228.545 172.797 223.096 168.54 218.839L151.569 235.81ZM150.887 234.355C150.887 234.45 150.876 234.265 151.006 233.932C151.141 233.588 151.325 233.347 151.427 233.242L168.683 249.922C172.861 245.6 174.887 240.145 174.887 234.355H150.887ZM151.422 233.247C151.58 233.083 151.908 232.818 152.386 232.62C152.853 232.426 153.181 232.414 153.219 232.414V256.414C159.056 256.414 164.499 254.255 168.688 249.917L151.422 233.247ZM153.219 232.414C149.406 232.414 143.807 232.515 136.491 232.711L137.134 256.703C144.402 256.508 149.74 256.414 153.219 256.414V232.414ZM136.598 232.709C129.322 232.839 123.941 232.902 120.406 232.902V256.902C124.163 256.902 129.719 256.836 137.027 256.705L136.598 232.709ZM120.406 232.902C115.262 232.902 108.155 233.583 99.449 234.77L102.692 258.55C111.173 257.394 116.957 256.902 120.406 256.902V232.902ZM99.3479 234.784C90.9527 236.002 85.2028 236.516 81.7344 236.516V260.516C86.9899 260.516 94.1306 259.792 102.793 258.536L99.3479 234.784ZM81.7344 236.516C81.8265 236.516 82.1703 236.539 82.6208 236.729C83.0729 236.92 83.3434 237.158 83.4286 237.246L66.1729 253.926C70.3387 258.236 75.7711 260.516 81.7344 260.516V236.516ZM83.4336 237.251C83.5795 237.402 83.7873 237.685 83.9341 238.063C84.0753 238.426 84.0664 238.635 84.0664 238.555H60.0664C60.0664 244.235 62.0313 249.637 66.168 253.921L83.4336 237.251ZM84.0664 238.555C84.0664 238.477 84.0746 238.656 83.9541 238.97C83.8298 239.294 83.6619 239.519 83.5734 239.614L66.0281 223.238C62.0245 227.528 60.0664 232.876 60.0664 238.555H84.0664ZM83.4286 239.766C83.3434 239.854 83.0729 240.091 82.6208 240.282C82.1703 240.473 81.8265 240.496 81.7344 240.496V216.496C75.7711 216.496 70.3387 218.776 66.1729 223.086L83.4286 239.766ZM81.7344 240.496C86.8798 240.496 94.6074 239.7 104.394 238.329L101.067 214.561C91.3223 215.925 85.0525 216.496 81.7344 216.496V240.496ZM114.64 227.916C115.365 222.044 115.707 215.515 115.707 208.379H91.707C91.707 214.784 91.398 220.3 90.8209 224.975L114.64 227.916ZM115.707 208.379C115.707 203.512 115.461 197.743 114.994 191.126L91.0533 192.819C91.4969 199.093 91.707 204.262 91.707 208.379H115.707ZM115.002 191.254C114.62 184.882 114.438 179.671 114.438 175.566H90.4375C90.4375 180.316 90.646 186.042 91.045 192.691L115.002 191.254ZM114.438 175.566C114.438 160.967 115.324 142.533 117.133 120.187L93.211 118.251C91.3735 140.956 90.4375 160.087 90.4375 175.566H114.438ZM104.803 107.224L92.1075 107.615L92.8456 131.604L105.541 131.213L104.803 107.224ZM92.1997 107.613L79.5044 107.906L80.0581 131.899L92.7534 131.606L92.1997 107.613ZM79.7812 107.902C79.7519 107.902 80.0078 107.902 80.4072 108.063C80.8178 108.229 81.1029 108.453 81.2353 108.585L64.2647 125.556C68.5218 129.813 73.9709 131.902 79.7812 131.902V107.902ZM81.2353 108.585C81.4221 108.772 81.6479 109.084 81.7987 109.469C81.9409 109.832 81.918 110.007 81.918 109.844H57.918C57.918 115.616 59.8966 121.187 64.2647 125.556L81.2353 108.585ZM81.918 109.844C81.918 109.318 81.9869 109.271 81.8994 109.539C81.7971 109.852 81.5439 110.395 81.0372 110.945C80.533 111.492 80.0335 111.769 79.7802 111.877C79.5686 111.967 79.6627 111.884 80.2414 111.828L77.954 87.9374C73.0249 88.4094 67.5486 90.1663 63.3886 94.6803C59.2037 99.2214 57.918 104.849 57.918 109.844H81.918ZM80.2771 111.825C84.879 111.37 94.1779 111.102 108.688 111.102V87.1016C94.2909 87.1016 83.8632 87.3538 77.9182 87.9409L80.2771 111.825ZM108.688 111.102C120.861 111.102 136.489 112.424 155.715 115.179L159.121 91.4222C139.284 88.579 122.425 87.1016 108.688 87.1016V111.102ZM155.684 115.175C156.125 115.239 156.128 115.3 155.87 115.171C155.574 115.024 155.126 114.721 154.711 114.222C154.301 113.729 154.13 113.295 154.078 113.121C154.036 112.981 154.109 113.146 154.109 113.75H178.109C178.109 108.872 176.946 103.423 173.162 98.8741C169.319 94.2539 164.098 92.1492 159.152 91.4268L155.684 115.175ZM154.109 113.75C154.109 113.812 154.104 113.463 154.35 112.921C154.606 112.358 154.953 111.982 155.161 111.811L170.418 130.337C175.605 126.066 178.109 120.12 178.109 113.75H154.109ZM155.488 111.551C155.5 111.542 155.54 111.512 155.609 111.475C155.679 111.438 155.76 111.403 155.845 111.375C156.031 111.313 156.124 111.32 156.051 111.32V135.32C161.14 135.32 165.972 133.755 170.09 130.597L155.488 111.551ZM243.941 166.191L233.547 172.188L233.587 172.256L233.627 172.324L243.941 166.191ZM241.402 155.645L253.296 154.049L251.506 140.706L238.455 144.012L241.402 155.645ZM218.844 162.48L215.115 151.075L214.759 151.191L214.411 151.329L218.844 162.48ZM203.023 177.91L191.024 177.783L190.934 186.259L198.892 189.177L203.023 177.91ZM208.785 179.473L210.891 167.659L210.858 167.653L210.824 167.647L208.785 179.473ZM242.184 190.508L248.682 180.42L248.673 180.414L242.184 190.508ZM244.332 244.219L250.362 254.594L250.391 254.577L250.419 254.56L244.332 244.219ZM191.012 246.562L195.173 235.307L195.143 235.296L195.113 235.285L191.012 246.562ZM179 224.492L170.793 215.738L170.723 215.803L170.655 215.869L179 224.492ZM193.844 226.25L185.446 234.822L185.493 234.868L185.541 234.914L193.844 226.25ZM204.391 229.961L206.506 218.149L206.5 218.148L204.391 229.961ZM229.879 229.18L226.307 217.724L226.3 217.726L229.879 229.18ZM220.406 202.227L223.345 190.592L223.172 190.548L222.997 190.51L220.406 202.227ZM210.25 199.98L212.841 188.264L212.824 188.26L212.806 188.256L210.25 199.98ZM191.793 193.34L198.651 183.493L198.634 183.481L198.617 183.469L191.793 193.34ZM203.121 147.734L198.197 136.791L198.189 136.795L198.181 136.799L203.121 147.734ZM221.871 141.484L225.11 153.039L225.15 153.028L225.191 153.016L221.871 141.484ZM240.328 135.234L235.504 124.247L235.426 124.281L235.348 124.317L240.328 135.234ZM255.855 136.211L247.217 144.541L247.293 144.619L247.37 144.696L255.855 136.211ZM259.762 151.641L248.028 154.155L248.049 154.255L248.073 154.354L259.762 151.641ZM258.297 167.07L249.812 158.585L249.734 158.662L249.659 158.741L258.297 167.07ZM251.461 157.805C250.971 157.805 251.327 157.718 252.093 158.085C252.486 158.274 252.917 158.552 253.329 158.929C253.74 159.307 254.045 159.704 254.256 160.059L233.627 172.324C237.833 179.399 244.999 181.805 251.461 181.805V157.805ZM254.336 160.195C254.582 160.622 254.633 160.825 254.56 160.616C254.498 160.439 254.385 160.077 254.241 159.477C253.948 158.261 253.623 156.487 253.296 154.049L229.509 157.24C229.898 160.141 230.354 162.794 230.908 165.094C231.413 167.192 232.188 169.832 233.547 172.188L254.336 160.195ZM238.455 144.012C233.154 145.355 225.31 147.741 215.115 151.075L222.573 173.886C232.69 170.579 239.885 168.408 244.349 167.277L238.455 144.012ZM214.411 151.329C203.41 155.702 191.175 163.586 191.024 177.783L215.023 178.038C215.015 178.802 214.556 178.883 215.406 178.054C216.471 177.015 218.805 175.409 223.277 173.632L214.411 151.329ZM198.892 189.177C201.467 190.121 204.088 190.84 206.746 191.298L210.824 167.647C209.707 167.454 208.486 167.132 207.154 166.644L198.892 189.177ZM206.679 191.286C221.092 193.856 230.384 197.188 235.695 200.602L248.673 180.414C239.399 174.452 226.426 170.428 210.891 167.659L206.679 191.286ZM235.685 200.596C242.76 205.153 246.102 211.189 246.102 220.195H270.102C270.102 203.29 262.831 189.534 248.682 180.42L235.685 200.596ZM246.102 220.195C246.102 226.536 243.778 230.62 238.245 233.877L250.419 254.56C263.245 247.01 270.102 235.078 270.102 220.195H246.102ZM238.302 233.844C233.015 236.917 225.624 238.859 215.426 238.859V262.859C228.534 262.859 240.415 260.375 250.362 254.594L238.302 233.844ZM215.426 238.859C208.271 238.859 201.545 237.663 195.173 235.307L186.85 257.818C195.973 261.191 205.524 262.859 215.426 262.859V238.859ZM195.113 235.285C191.016 233.795 189.065 232.392 188.272 231.589C187.929 231.241 187.891 231.096 187.926 231.178C187.971 231.281 187.973 231.369 187.973 231.328H163.973C163.973 245.757 175.58 253.72 186.911 257.84L195.113 235.285ZM187.973 231.328C187.973 231.623 187.905 232.065 187.702 232.525C187.506 232.966 187.305 233.154 187.345 233.115L170.655 215.869C166.504 219.886 163.973 225.2 163.973 231.328H187.973ZM187.207 233.247C187.33 233.131 187.245 233.243 186.936 233.372C186.607 233.509 186.272 233.562 186.031 233.562V209.562C180.072 209.562 174.866 211.919 170.793 215.738L187.207 233.247ZM186.031 233.562C184.989 233.562 184.222 233.362 183.812 233.224C183.407 233.087 183.239 232.973 183.324 233.024C183.402 233.071 183.631 233.219 184.014 233.529C184.392 233.835 184.869 234.257 185.446 234.822L202.241 217.678C200.258 215.735 198.06 213.878 195.672 212.444C193.378 211.068 190.047 209.562 186.031 209.562V233.562ZM185.541 234.914C188.143 237.408 191.3 238.787 193.669 239.621C196.255 240.53 199.187 241.222 202.281 241.774L206.5 218.148C204.126 217.724 202.565 217.308 201.635 216.981C201.184 216.822 201.026 216.734 201.071 216.759C201.094 216.771 201.546 217.011 202.147 217.586L185.541 234.914ZM202.275 241.773C207.037 242.626 211.472 243.133 215.426 243.133V219.133C213.39 219.133 210.468 218.858 206.506 218.149L202.275 241.773ZM215.426 243.133C221.816 243.133 227.883 242.376 233.458 240.633L226.3 217.726C223.541 218.588 219.973 219.133 215.426 219.133V243.133ZM233.451 240.636C237.486 239.377 241.746 237.396 245.13 234.049C248.825 230.393 250.961 225.586 250.961 220.195H226.961C226.961 219.706 227.06 219.05 227.356 218.355C227.648 217.67 228.017 217.218 228.251 216.987C228.462 216.778 228.499 216.81 228.17 216.987C227.841 217.164 227.25 217.43 226.307 217.724L233.451 240.636ZM250.961 220.195C250.961 212.623 248.17 205.769 242.67 200.442C237.513 195.448 230.654 192.438 223.345 190.592L217.467 213.861C222.528 215.14 224.946 216.687 225.974 217.683C226.659 218.346 226.961 218.914 226.961 220.195H250.961ZM222.997 190.51L212.841 188.264L207.659 211.697L217.815 213.943L222.997 190.51ZM212.806 188.256C204.463 186.437 200.262 184.615 198.651 183.493L184.935 203.187C190.615 207.143 198.72 209.748 207.694 211.705L212.806 188.256ZM198.617 183.469C197.102 182.421 195.883 180.925 195.883 176.836H171.883C171.883 187.461 175.938 196.967 184.969 203.211L198.617 183.469ZM195.883 176.836C195.883 171.977 197.003 168.545 198.703 165.973C200.42 163.375 203.276 160.832 208.062 158.67L198.181 136.799C190.141 140.431 183.377 145.635 178.682 152.738C173.969 159.867 171.883 168.088 171.883 176.836H195.883ZM208.045 158.677C211.088 157.308 216.614 155.42 225.11 153.039L218.632 129.93C209.94 132.366 202.966 134.645 198.197 136.791L208.045 158.677ZM225.191 153.016C233.847 150.524 240.732 148.24 245.308 146.152L235.348 124.317C232.503 125.615 227.083 127.497 218.551 129.953L225.191 153.016ZM245.152 146.222C246.193 145.765 247.434 145.477 249.02 145.477V121.477C244.355 121.477 239.801 122.36 235.504 124.247L245.152 146.222ZM249.02 145.477C249.106 145.477 248.835 145.487 248.371 145.302C247.883 145.106 247.479 144.812 247.217 144.541L264.494 127.881C260.224 123.453 254.698 121.477 249.02 121.477V145.477ZM247.37 144.696C247.108 144.434 246.857 144.062 246.702 143.658C246.559 143.284 246.59 143.125 246.59 143.34H270.59C270.59 137.7 268.728 132.112 264.341 127.726L247.37 144.696ZM246.59 143.34C246.59 146.54 247.206 150.318 248.028 154.155L271.495 149.126C270.755 145.672 270.59 143.916 270.59 143.34H246.59ZM248.073 154.354C248.872 157.799 249.031 159.474 249.031 159.941H273.031C273.031 156.633 272.344 152.774 271.451 148.927L248.073 154.354ZM249.031 159.941C249.031 160.156 249 159.998 249.144 159.623C249.298 159.22 249.549 158.848 249.812 158.585L266.782 175.556C271.169 171.169 273.031 165.581 273.031 159.941H249.031ZM249.659 158.741C249.92 158.469 250.324 158.175 250.813 157.979C251.276 157.794 251.547 157.805 251.461 157.805V181.805C257.139 181.805 262.665 179.828 266.935 175.4L249.659 158.741ZM441.891 117.461L450.996 125.278L451.156 125.09L451.309 124.897L441.891 117.461ZM433.004 127.812L423.899 119.996L423.892 120.004L423.884 120.013L433.004 127.812ZM409.664 163.75L398.951 158.344L398.844 158.555L398.746 158.77L409.664 163.75ZM391.891 202.715L380.973 197.735L380.922 197.846L380.874 197.958L391.891 202.715ZM383.688 225.273L395.009 229.251L395.016 229.232L395.022 229.213L383.688 225.273ZM374.215 246.855L364 240.558L363.952 240.636L363.906 240.714L374.215 246.855ZM359.469 248.711L351.281 257.484L351.353 257.55L351.425 257.616L359.469 248.711ZM362.789 223.125L351.68 218.588L351.677 218.595L362.789 223.125ZM384.762 169.316L373.842 164.341L373.743 164.558L373.652 164.78L384.762 169.316ZM414.645 120.098L405.746 112.047L405.706 112.091L405.667 112.135L414.645 120.098ZM416.5 118.047L425.398 126.098L443.063 106.574L416.739 106.049L416.5 118.047ZM367.477 117.07L367.157 129.066L367.197 129.067L367.238 129.068L367.477 117.07ZM345.504 116.484L344.395 128.433L344.789 128.47L345.184 128.48L345.504 116.484ZM338.766 100.371L330.436 91.733L338.766 100.371ZM382.516 98.5156L382.135 110.51L382.136 110.51L382.516 98.5156ZM432.786 109.644L423.899 119.996L442.109 135.629L450.996 125.278L432.786 109.644ZM423.884 120.013C414.681 130.773 406.394 143.595 398.951 158.344L420.377 169.156C427.127 155.78 434.399 144.643 442.123 135.612L423.884 120.013ZM398.746 158.77L380.973 197.735L402.808 207.695L420.582 168.73L398.746 158.77ZM380.874 197.958C379.423 201.319 376.527 209.323 372.353 221.334L395.022 229.213C399.311 216.875 401.885 209.84 402.907 207.472L380.874 197.958ZM372.366 221.296C369.072 230.67 366.251 236.906 364 240.558L384.43 253.152C388.038 247.3 391.532 239.148 395.009 229.251L372.366 221.296ZM363.906 240.714C363.842 240.82 364.088 240.379 364.816 239.951C365.572 239.507 366.222 239.445 366.402 239.445V263.445C374.278 263.445 380.674 259.459 384.524 252.997L363.906 240.714ZM366.402 239.445C366.534 239.445 366.805 239.475 367.118 239.598C367.423 239.719 367.554 239.844 367.512 239.806L351.425 257.616C355.542 261.334 360.685 263.445 366.402 263.445V239.445ZM367.657 239.938C367.712 239.99 367.985 240.27 368.224 240.804C368.469 241.351 368.539 241.855 368.539 242.168H344.539C344.539 248.224 347.039 253.524 351.281 257.484L367.657 239.938ZM368.539 242.168C368.539 242.948 368.416 243.158 368.608 242.344C368.763 241.688 369.044 240.693 369.503 239.294C370.42 236.501 371.865 232.65 373.901 227.655L351.677 218.595C349.546 223.822 347.867 228.255 346.7 231.81C345.717 234.804 344.539 238.745 344.539 242.168H368.539ZM373.899 227.662L395.871 173.853L373.652 164.78L351.68 218.588L373.899 227.662ZM395.682 174.292C405.116 153.588 414.491 138.355 423.622 128.061L405.667 112.135C394.356 124.887 383.809 142.467 373.842 164.341L395.682 174.292ZM423.543 128.149L425.398 126.098L407.602 109.996L405.746 112.047L423.543 128.149ZM416.739 106.049L367.716 105.073L367.238 129.068L416.261 130.044L416.739 106.049ZM367.796 105.075L345.824 104.489L345.184 128.48L367.157 129.066L367.796 105.075ZM346.613 104.536C345.062 104.392 345.751 104.094 346.841 105.172C347.389 105.714 347.738 106.326 347.917 106.824C348.077 107.271 348.031 107.428 348.031 107.109H324.031C324.031 112.22 325.519 117.837 329.958 122.23C334.205 126.433 339.63 127.991 344.395 128.433L346.613 104.536ZM348.031 107.109C348.031 107.092 348.03 107.404 347.834 107.886C347.631 108.388 347.337 108.776 347.095 109.009L330.436 91.733C326.068 95.9453 324.031 101.405 324.031 107.109H348.031ZM347.095 109.009C346.897 109.2 346.571 109.431 346.16 109.59C345.767 109.741 345.535 109.734 345.602 109.734V85.7344C340.032 85.7344 334.684 87.6366 330.436 91.733L347.095 109.009ZM345.602 109.734C353.607 109.734 365.757 109.99 382.135 110.51L382.896 86.5217C366.462 85.9999 354.002 85.7344 345.602 85.7344V109.734ZM382.136 110.51C398.635 111.031 411.127 111.297 419.527 111.297V87.2969C411.521 87.2969 399.339 87.0416 382.895 86.5216L382.136 110.51ZM419.527 111.297H437.398V87.2969H419.527V111.297ZM437.398 111.297C438.565 111.297 439.262 111.387 439.595 111.453C439.947 111.522 439.647 111.516 439.031 111.151C438.338 110.739 437.371 109.937 436.637 108.628C435.909 107.33 435.75 106.142 435.75 105.449H459.75C459.75 99.2791 456.754 93.7649 451.293 90.5194C446.816 87.8582 441.645 87.2969 437.398 87.2969V111.297ZM435.75 105.449C435.75 104.518 436.014 104.432 435.5 105.486C435.019 106.472 434.093 107.971 432.472 110.025L451.309 124.897C455.418 119.692 459.75 112.881 459.75 105.449H435.75ZM542.77 243.73L538.749 255.037L538.899 255.09L539.049 255.139L542.77 243.73ZM494.723 244.316L493.177 232.416L493.167 232.418L493.157 232.419L494.723 244.316ZM468.453 237.969L479.904 234.38L479.856 234.228L479.804 234.077L468.453 237.969ZM479.684 189.629L488.628 197.629L488.637 197.618L479.684 189.629ZM510.25 166.191L503.466 156.293L503.46 156.297L510.25 166.191ZM528.902 151.25L519.964 143.243L519.912 143.301L519.861 143.36L528.902 151.25ZM529.195 118.145L522.898 128.36L522.951 128.392L523.003 128.424L529.195 118.145ZM498.141 118.926L491.682 108.812L491.196 109.123L490.741 109.479L498.141 118.926ZM484.176 129.863L476.777 120.416L476.755 120.433L476.733 120.45L484.176 129.863ZM471.09 117.266L479.091 126.209L479.202 126.11L479.31 126.008L471.09 117.266ZM490.914 101.738L496.855 112.165L496.858 112.162L490.914 101.738ZM543.453 103.594L550.316 93.75L550.302 93.7401L550.288 93.7302L543.453 103.594ZM554.488 146.758L543.117 142.923L554.488 146.758ZM545.895 162.09L555.113 169.772L555.119 169.766L555.124 169.759L545.895 162.09ZM521.09 181.719L514.766 171.52L514.738 171.538L514.71 171.555L521.09 181.719ZM496.969 199.199L488.343 190.857L488.335 190.865L496.969 199.199ZM486.324 226.445L474.325 226.592L474.484 239.588L487.426 238.395L486.324 226.445ZM506.441 224.59L505.763 212.609L505.551 212.621L505.339 212.641L506.441 224.59ZM550.094 225.957L554.443 214.773L554.411 214.761L554.379 214.748L550.094 225.957ZM556.246 242.266L565.166 250.293L565.231 250.221L565.295 250.147L556.246 242.266ZM549.703 233.195C550.004 233.195 549.9 233.23 549.229 233.088C548.604 232.956 547.705 232.718 546.49 232.322L539.049 255.139C542.342 256.213 546.123 257.195 549.703 257.195V233.195ZM546.79 232.424C543.586 231.285 539.736 230.168 536.031 230.168V254.168C535.58 254.168 535.565 254.106 536.177 254.248C536.735 254.378 537.576 254.62 538.749 255.037L546.79 232.424ZM536.031 230.168C532.345 230.168 527.077 230.381 520.385 230.775L521.795 254.733C528.384 254.346 533.077 254.168 536.031 254.168V230.168ZM520.385 230.775C513.802 231.162 509.073 231.34 506.051 231.34V255.34C509.799 255.34 515.097 255.127 521.795 254.733L520.385 230.775ZM506.051 231.34C502.708 231.34 498.306 231.75 493.177 232.416L496.268 256.216C501.166 255.58 504.315 255.34 506.051 255.34V231.34ZM493.157 232.419C488.334 233.054 485.222 233.293 483.492 233.293V257.293C486.841 257.293 491.215 256.881 496.288 256.214L493.157 232.419ZM483.492 233.293C483.667 233.293 483.769 233.301 483.781 233.301C483.795 233.302 483.759 233.3 483.662 233.288C483.461 233.263 483.12 233.211 482.613 233.114L478.122 256.69C479.675 256.986 481.614 257.293 483.492 257.293V233.293ZM482.613 233.114C481.059 232.818 479.12 232.512 477.242 232.512V256.512C477.067 256.512 476.965 256.504 476.954 256.503C476.939 256.502 476.975 256.505 477.072 256.517C477.273 256.542 477.614 256.594 478.122 256.69L482.613 233.114ZM477.242 232.512C476.973 232.512 477.798 232.473 478.842 233.25C479.867 234.014 480.023 234.761 479.904 234.38L457.002 241.558C458.25 245.539 460.555 249.557 464.51 252.502C468.484 255.46 473.02 256.512 477.242 256.512V232.512ZM479.804 234.077C479.841 234.183 479.668 233.668 479.515 232.136C479.371 230.703 479.281 228.766 479.281 226.25H455.281C455.281 231.838 455.614 237.523 457.102 241.861L479.804 234.077ZM479.281 226.25C479.281 213.344 482.743 204.209 488.628 197.629L470.739 181.629C460.088 193.538 455.281 208.818 455.281 226.25H479.281ZM488.637 197.618C489.709 196.417 492.407 193.993 497.459 190.118C502.32 186.391 508.828 181.722 517.04 176.086L503.46 156.297C495.071 162.054 488.183 166.988 482.855 171.073C477.719 175.011 473.434 178.609 470.73 181.639L488.637 197.618ZM517.034 176.09C526.351 169.705 533.718 163.983 537.943 159.14L519.861 143.36C517.837 145.679 512.769 149.918 503.466 156.293L517.034 176.09ZM537.84 159.257C545.413 150.804 549.301 140.628 549.301 129.277H525.301C525.301 134.724 523.59 139.196 519.964 143.243L537.84 159.257ZM549.301 129.277C549.301 119.009 542.405 112.093 535.387 107.866L523.003 128.424C524.813 129.514 525.448 130.26 525.573 130.432C525.615 130.49 525.532 130.389 525.443 130.131C525.351 129.862 525.301 129.559 525.301 129.277H549.301ZM535.492 107.929C529.273 104.096 522.464 101.75 515.23 101.75V125.75C517.111 125.75 519.613 126.334 522.898 128.36L535.492 107.929ZM515.23 101.75C506.79 101.75 498.873 104.22 491.682 108.812L504.599 129.04C508.216 126.73 511.692 125.75 515.23 125.75V101.75ZM490.741 109.479L476.777 120.416L491.575 139.311L505.54 128.373L490.741 109.479ZM476.733 120.45C476.259 120.825 475.877 121.099 475.583 121.292C475.286 121.487 475.124 121.572 475.088 121.589C475.046 121.61 475.212 121.523 475.565 121.423C475.917 121.324 476.563 121.184 477.438 121.184V145.184C483.545 145.184 488.625 141.644 491.619 139.276L476.733 120.45ZM477.438 121.184C476.993 121.184 476.664 121.161 476.436 121.135C476.208 121.109 476.109 121.083 476.115 121.085C476.124 121.087 476.662 121.232 477.368 121.793C478.129 122.4 478.727 123.209 479.076 124.045C479.396 124.807 479.379 125.274 479.379 125.176H455.379C455.379 130.514 457.191 136.408 462.419 140.57C467.125 144.316 472.813 145.184 477.438 145.184V121.184ZM479.379 125.176C479.379 125.224 479.373 125.342 479.338 125.507C479.301 125.674 479.244 125.843 479.171 126C479.014 126.334 478.89 126.389 479.091 126.209L463.088 108.323C458.313 112.596 455.379 118.389 455.379 125.176H479.379ZM479.31 126.008C486.607 119.148 492.427 114.687 496.855 112.165L484.973 91.3119C478.203 95.1695 470.807 101.06 462.87 108.523L479.31 126.008ZM496.858 112.162C503.09 108.609 509.163 107 515.23 107V83C504.631 83 494.494 85.8829 484.97 91.3141L496.858 112.162ZM515.23 107C523.46 107 530.459 109.189 536.619 113.457L550.288 93.7302C539.911 86.5401 528.094 83 515.23 83V107ZM536.59 113.438C543.054 117.944 545.32 122.736 545.32 128.398H569.32C569.32 113.878 562.342 102.134 550.316 93.75L536.59 113.438ZM545.32 128.398C545.32 133.895 544.541 138.703 543.117 142.923L565.859 150.592C568.212 143.615 569.32 136.183 569.32 128.398H545.32ZM543.117 142.923C541.709 147.099 539.579 150.914 536.665 154.42L555.124 169.759C559.892 164.021 563.491 157.615 565.859 150.592L543.117 142.923ZM536.676 154.408C533.027 158.786 526.052 164.522 514.766 171.52L527.414 191.917C539.435 184.462 548.996 177.112 555.113 169.772L536.676 154.408ZM514.71 171.555C502.556 179.184 493.328 185.703 488.343 190.857L505.594 207.542C508.292 204.753 515.145 199.618 527.469 191.883L514.71 171.555ZM488.335 190.865C478.85 200.691 474.157 212.847 474.325 226.592L498.323 226.299C498.231 218.689 500.634 212.681 505.603 207.533L488.335 190.865ZM487.426 238.395L507.544 236.539L505.339 212.641L485.222 214.496L487.426 238.395ZM507.12 236.571C520.913 235.79 530.478 235.418 536.031 235.418V211.418C529.736 211.418 519.574 211.827 505.763 212.609L507.12 236.571ZM536.031 235.418C539.58 235.418 542.809 236.019 545.808 237.166L554.379 214.748C548.524 212.51 542.379 211.418 536.031 211.418V235.418ZM545.744 237.141C546.667 237.5 547.268 237.814 547.627 238.036C547.985 238.258 548.018 238.335 547.889 238.196C547.743 238.039 547.456 237.674 547.22 237.093C546.978 236.499 546.883 235.91 546.883 235.43H570.883C570.883 223.895 561.961 217.697 554.443 214.773L545.744 237.141ZM546.883 235.43C546.883 235.282 546.915 235.017 547.028 234.725C547.137 234.441 547.246 234.328 547.197 234.384L565.295 250.147C568.844 246.073 570.883 241.032 570.883 235.43H546.883ZM547.327 234.238C547.455 234.095 547.804 233.772 548.388 233.511C548.974 233.248 549.468 233.195 549.703 233.195V257.195C555.744 257.195 561.156 254.749 565.166 250.293L547.327 234.238ZM686.031 117.461L695.136 125.278L695.297 125.09L695.45 124.897L686.031 117.461ZM677.145 127.812L668.04 119.996L668.032 120.004L668.025 120.013L677.145 127.812ZM653.805 163.75L643.091 158.344L642.985 158.555L642.887 158.77L653.805 163.75ZM636.031 202.715L625.113 197.735L625.063 197.846L625.015 197.958L636.031 202.715ZM627.828 225.273L639.15 229.251L639.156 229.232L639.163 229.213L627.828 225.273ZM618.355 246.855L608.14 240.558L608.093 240.636L608.046 240.714L618.355 246.855ZM603.609 248.711L595.422 257.484L595.493 257.55L595.566 257.616L603.609 248.711ZM606.93 223.125L595.82 218.588L595.817 218.595L606.93 223.125ZM628.902 169.316L617.983 164.341L617.883 164.558L617.793 164.78L628.902 169.316ZM658.785 120.098L649.887 112.047L649.847 112.091L649.808 112.135L658.785 120.098ZM660.641 118.047L669.539 126.098L687.204 106.574L660.88 106.049L660.641 118.047ZM611.617 117.07L611.297 129.066L611.338 129.067L611.378 129.068L611.617 117.07ZM589.645 116.484L588.536 128.433L588.929 128.47L589.325 128.48L589.645 116.484ZM582.906 100.371L574.577 91.733L582.906 100.371ZM626.656 98.5156L626.275 110.51L626.277 110.51L626.656 98.5156ZM676.926 109.644L668.04 119.996L686.25 135.629L695.136 125.278L676.926 109.644ZM668.025 120.013C658.822 130.773 650.534 143.595 643.091 158.344L664.518 169.156C671.268 155.78 678.54 144.643 686.264 135.612L668.025 120.013ZM642.887 158.77L625.113 197.735L646.949 207.695L664.723 168.73L642.887 158.77ZM625.015 197.958C623.563 201.319 620.668 209.323 616.493 221.334L639.163 229.213C643.452 216.875 646.025 209.84 647.048 207.472L625.015 197.958ZM616.507 221.296C613.213 230.67 610.392 236.906 608.14 240.558L628.571 253.152C632.178 247.3 635.672 239.148 639.15 229.251L616.507 221.296ZM608.046 240.714C607.983 240.82 608.229 240.379 608.957 239.951C609.713 239.507 610.363 239.445 610.543 239.445V263.445C618.419 263.445 624.815 259.459 628.665 252.997L608.046 240.714ZM610.543 239.445C610.674 239.445 610.946 239.475 611.259 239.598C611.564 239.719 611.695 239.844 611.653 239.806L595.566 257.616C599.682 261.334 604.825 263.445 610.543 263.445V239.445ZM611.797 239.938C611.853 239.99 612.125 240.27 612.364 240.804C612.609 241.351 612.68 241.855 612.68 242.168H588.68C588.68 248.224 591.18 253.524 595.422 257.484L611.797 239.938ZM612.68 242.168C612.68 242.948 612.557 243.158 612.749 242.344C612.904 241.688 613.185 240.693 613.644 239.294C614.561 236.501 616.006 232.65 618.042 227.655L595.817 218.595C593.687 223.822 592.007 228.255 590.841 231.81C589.858 234.804 588.68 238.745 588.68 242.168H612.68ZM618.039 227.662L640.012 173.853L617.793 164.78L595.82 218.588L618.039 227.662ZM639.822 174.292C649.256 153.588 658.631 138.355 667.762 128.061L649.808 112.135C638.496 124.887 627.95 142.467 617.983 164.341L639.822 174.292ZM667.684 128.149L669.539 126.098L651.742 109.996L649.887 112.047L667.684 128.149ZM660.88 106.049L611.856 105.073L611.378 129.068L660.402 130.044L660.88 106.049ZM611.937 105.075L589.964 104.489L589.325 128.48L611.297 129.066L611.937 105.075ZM590.753 104.536C589.203 104.392 589.892 104.094 590.981 105.172C591.529 105.714 591.878 106.326 592.057 106.824C592.218 107.271 592.172 107.428 592.172 107.109H568.172C568.172 112.22 569.659 117.837 574.099 122.23C578.346 126.433 583.771 127.991 588.536 128.433L590.753 104.536ZM592.172 107.109C592.172 107.092 592.171 107.404 591.975 107.886C591.771 108.388 591.477 108.776 591.236 109.009L574.577 91.733C570.208 95.9453 568.172 101.405 568.172 107.109H592.172ZM591.236 109.009C591.038 109.2 590.711 109.431 590.301 109.59C589.907 109.741 589.676 109.734 589.742 109.734V85.7344C584.173 85.7344 578.825 87.6366 574.577 91.733L591.236 109.009ZM589.742 109.734C597.748 109.734 609.897 109.99 626.275 110.51L627.037 86.5217C610.603 85.9999 598.143 85.7344 589.742 85.7344V109.734ZM626.277 110.51C642.776 111.031 655.268 111.297 663.668 111.297V87.2969C655.662 87.2969 643.479 87.0416 627.036 86.5216L626.277 110.51ZM663.668 111.297H681.539V87.2969H663.668V111.297ZM681.539 111.297C682.706 111.297 683.403 111.387 683.736 111.453C684.087 111.522 683.787 111.516 683.172 111.151C682.479 110.739 681.512 109.937 680.777 108.628C680.05 107.33 679.891 106.142 679.891 105.449H703.891C703.891 99.2791 700.894 93.7649 695.434 90.5194C690.956 87.8582 685.786 87.2969 681.539 87.2969V111.297ZM679.891 105.449C679.891 104.518 680.155 104.432 679.641 105.486C679.16 106.472 678.234 107.971 676.613 110.025L695.45 124.897C699.559 119.692 703.891 112.881 703.891 105.449H679.891Z" fill="url(#paint0_linear_1_3)" mask="url(#path-1-outside-1_1_3)"/>
</g>
<defs>
<filter id="filter0_dd_1_3" x="65.918" y="91.1" width="641.873" height="170.245" filterUnits="userSpaceOnUse" color-interpolation-filters="sRGB">
<feFlood flood-opacity="0" result="BackgroundImageFix"/>
<feColorMatrix in="SourceAlpha" type="matrix" values="0 0 0 0 0 0 0 0 0 0 0 0 0 0 0 0 0 0 127 0" result="hardAlpha"/>
<feOffset dx="9" dy="3"/>
<feGaussianBlur stdDeviation="3.45"/>
<feComposite in2="hardAlpha" operator="out"/>
<feColorMatrix type="matrix" values="0 0 0 0 1 0 0 0 0 0 0 0 0 0 0 0 0 0 1 0"/>
<feBlend mode="normal" in2="BackgroundImageFix" result="effect1_dropShadow_1_3"/>
<feColorMatrix in="SourceAlpha" type="matrix" values="0 0 0 0 0 0 0 0 0 0 0 0 0 0 0 0 0 0 127 0" result="hardAlpha"/>
<feOffset dy="4"/>
<feGaussianBlur stdDeviation="2"/>
<feComposite in2="hardAlpha" operator="out"/>
<feColorMatrix type="matrix" values="0 0 0 0 0 0 0 0 0 0 0 0 0 0 0 0 0 0 0.25 0"/>
<feBlend mode="normal" in2="effect1_dropShadow_1_3" result="effect2_dropShadow_1_3"/>
<feBlend mode="normal" in="SourceGraphic" in2="effect2_dropShadow_1_3" result="shape"/>
</filter>
<linearGradient id="paint0_linear_1_3" x1="4.21021e-07" y1="163.412" x2="758" y2="163.412" gradientUnits="userSpaceOnUse">
<stop stop-color="#FAFF00"/>
<stop offset="1" stop-color="white"/>
</linearGradient>
</defs>
</svg>
